<svg xmlns="http://www.w3.org/2000/svg" id="export" class="canvas" preserveAspectRatio="xMidYMid meet" style="" width="806" height="94"><rect id="background" fill="#fff" pointer-events="all" width="806" height="94"/><g id="origin" transform="translate(4.25, 4.25) scale(1)"><g id="clusters" class="clusters"/><g id="edge-paths" class="edge-paths"><defs><marker id="arrowhead" viewBox="0 0 10 10" refX="9" refY="5" markerUnits="strokeWidth" markerWidth="8" markerHeight="6" orient="auto" style="fill: rgb(0, 0, 0);"><path d="M 0 0 L 10 5 L 0 10 L 4 5 z" style="stroke-width: 1;"/></marker><marker id="arrowhead-select" viewBox="0 0 10 10" refX="9" refY="5" markerUnits="strokeWidth" markerWidth="8" markerHeight="6" orient="auto" style="fill: rgb(238, 0, 0);"><path d="M 0 0 L 10 5 L 0 10 L 4 5 z" style="stroke-width: 1;"/></marker><marker id="arrowhead-hover" viewBox="0 0 10 10" refX="9" refY="5" markerUnits="strokeWidth" markerWidth="8" markerHeight="6" orient="auto"><path d="M 0 0 L 10 5 L 0 10 L 4 5 z" style="stroke-width: 1;"/></marker></defs><path id="edge-input.1" class="edge-path" d="M47.625,42.5L49.291666666666664,42.5C50.958333333333336,42.5,54.291666666666664,42.5,61.33984375,42.5C68.38802083333333,42.5,79.15104166666667,42.5,89.9140625,42.5C100.67708333333333,42.5,111.44010416666667,42.5,118.48828125,42.5C125.53645833333333,42.5,128.86979166666666,42.5,130.53645833333334,42.5L132.203125,42.5" style="stroke: rgb(0, 0, 0); stroke-width: 1px; fill: none; marker-end: url(&quot;#arrowhead&quot;);"/><path class="edge-path-hit-test" d="M47.625,42.5L49.291666666666664,42.5C50.958333333333336,42.5,54.291666666666664,42.5,61.33984375,42.5C68.38802083333333,42.5,79.15104166666667,42.5,89.9140625,42.5C100.67708333333333,42.5,111.44010416666667,42.5,118.48828125,42.5C125.53645833333333,42.5,128.86979166666666,42.5,130.53645833333334,42.5L132.203125,42.5" style="pointer-events: stroke; stroke-width: 0.5em; fill: none; stroke: rgb(0, 0, 0); stroke-opacity: 0.001;"/><path id="edge-12" class="edge-path" d="M241.671875,42.5L243.33854166666666,42.5C245.00520833333334,42.5,248.33854166666666,42.5,251.671875,42.5C255.00520833333334,42.5,258.3385416666667,42.5,260.0052083333333,42.5L261.671875,42.5" style="stroke: rgb(0, 0, 0); stroke-width: 1px; fill: none; marker-end: url(&quot;#arrowhead&quot;);"/><path class="edge-path-hit-test" d="M241.671875,42.5L243.33854166666666,42.5C245.00520833333334,42.5,248.33854166666666,42.5,251.671875,42.5C255.00520833333334,42.5,258.3385416666667,42.5,260.0052083333333,42.5L261.671875,42.5" style="pointer-events: stroke; stroke-width: 0.5em; fill: none; stroke: rgb(0, 0, 0); stroke-opacity: 0.001;"/><path id="edge-13" class="edge-path" d="M336.671875,42.5L338.3385416666667,42.5C340.0052083333333,42.5,343.3385416666667,42.5,346.671875,42.5C350.0052083333333,42.5,353.3385416666667,42.5,355.0052083333333,42.5L356.671875,42.5" style="stroke: rgb(0, 0, 0); stroke-width: 1px; fill: none; marker-end: url(&quot;#arrowhead&quot;);"/><path class="edge-path-hit-test" d="M336.671875,42.5L338.3385416666667,42.5C340.0052083333333,42.5,343.3385416666667,42.5,346.671875,42.5C350.0052083333333,42.5,353.3385416666667,42.5,355.0052083333333,42.5L356.671875,42.5" style="pointer-events: stroke; stroke-width: 0.5em; fill: none; stroke: rgb(0, 0, 0); stroke-opacity: 0.001;"/><path id="edge-14" class="edge-path" d="M391.578125,42.5L393.2447916666667,42.5C394.9114583333333,42.5,398.2447916666667,42.5,401.578125,42.5C404.9114583333333,42.5,408.2447916666667,42.5,409.9114583333333,42.5L411.578125,42.5" style="stroke: rgb(0, 0, 0); stroke-width: 1px; fill: none; marker-end: url(&quot;#arrowhead&quot;);"/><path class="edge-path-hit-test" d="M391.578125,42.5L393.2447916666667,42.5C394.9114583333333,42.5,398.2447916666667,42.5,401.578125,42.5C404.9114583333333,42.5,408.2447916666667,42.5,409.9114583333333,42.5L411.578125,42.5" style="pointer-events: stroke; stroke-width: 0.5em; fill: none; stroke: rgb(0, 0, 0); stroke-opacity: 0.001;"/><path id="edge-15" class="edge-path" d="M486.578125,42.5L488.2447916666667,42.5C489.9114583333333,42.5,493.2447916666667,42.5,496.578125,42.5C499.9114583333333,42.5,503.2447916666667,42.5,504.9114583333333,42.5L506.578125,42.5" style="stroke: rgb(0, 0, 0); stroke-width: 1px; fill: none; marker-end: url(&quot;#arrowhead&quot;);"/><path class="edge-path-hit-test" d="M486.578125,42.5L488.2447916666667,42.5C489.9114583333333,42.5,493.2447916666667,42.5,496.578125,42.5C499.9114583333333,42.5,503.2447916666667,42.5,504.9114583333333,42.5L506.578125,42.5" style="pointer-events: stroke; stroke-width: 0.5em; fill: none; stroke: rgb(0, 0, 0); stroke-opacity: 0.001;"/><path id="edge-16" class="edge-path" d="M541.484375,42.5L543.1510416666666,42.5C544.8177083333334,42.5,548.1510416666666,42.5,551.484375,42.5C554.8177083333334,42.5,558.1510416666666,42.5,559.8177083333334,42.5L561.484375,42.5" style="stroke: rgb(0, 0, 0); stroke-width: 1px; fill: none; marker-end: url(&quot;#arrowhead&quot;);"/><path class="edge-path-hit-test" d="M541.484375,42.5L543.1510416666666,42.5C544.8177083333334,42.5,548.1510416666666,42.5,551.484375,42.5C554.8177083333334,42.5,558.1510416666666,42.5,559.8177083333334,42.5L561.484375,42.5" style="pointer-events: stroke; stroke-width: 0.5em; fill: none; stroke: rgb(0, 0, 0); stroke-opacity: 0.001;"/><path id="edge-17" class="edge-path" d="M636.484375,42.5L638.1510416666666,42.5C639.8177083333334,42.5,643.1510416666666,42.5,646.484375,42.5C649.8177083333334,42.5,653.1510416666666,42.5,654.8177083333334,42.5L656.484375,42.5" style="stroke: rgb(0, 0, 0); stroke-width: 1px; fill: none; marker-end: url(&quot;#arrowhead&quot;);"/><path class="edge-path-hit-test" d="M636.484375,42.5L638.1510416666666,42.5C639.8177083333334,42.5,643.1510416666666,42.5,646.484375,42.5C649.8177083333334,42.5,653.1510416666666,42.5,654.8177083333334,42.5L656.484375,42.5" style="pointer-events: stroke; stroke-width: 0.5em; fill: none; stroke: rgb(0, 0, 0); stroke-opacity: 0.001;"/><path id="edge-18" class="edge-path" d="M711.01513671875,42.5L715.9979654947916,42.5C720.9807942708334,42.5,730.9464518229166,42.5,740.912109375,42.5C750.8777669270834,42.5,760.8434244791666,42.5,765.8262532552084,42.5L770.80908203125,42.5" style="stroke: rgb(0, 0, 0); stroke-width: 1px; fill: none; marker-end: url(&quot;#arrowhead&quot;);"/><path class="edge-path-hit-test" d="M711.01513671875,42.5L715.9979654947916,42.5C720.9807942708334,42.5,730.9464518229166,42.5,740.912109375,42.5C750.8777669270834,42.5,760.8434244791666,42.5,765.8262532552084,42.5L770.80908203125,42.5" style="pointer-events: stroke; stroke-width: 0.5em; fill: none; stroke: rgb(0, 0, 0); stroke-opacity: 0.001;"/></g><g id="edge-labels" class="edge-labels"><text class="edge-label" id="edge-label-edge-input.1" style="opacity: 1; font-family: -apple-system, BlinkMacSystemFont, &quot;Segoe WPC&quot;, &quot;Segoe UI&quot;, Ubuntu, &quot;Droid Sans&quot;, sans-serif, &quot;PingFang SC&quot;; font-size: 10px;" transform="translate(67.625,52.5)"><tspan xml:space="preserve" dy="1em" x="1">11628×81</tspan></text><text class="edge-label" id="edge-label-edge-18" style="opacity: 1; font-family: -apple-system, BlinkMacSystemFont, &quot;Segoe WPC&quot;, &quot;Segoe UI&quot;, Ubuntu, &quot;Droid Sans&quot;, sans-serif, &quot;PingFang SC&quot;; font-size: 10px;" transform="translate(721.01513671875,52.5)"><tspan xml:space="preserve" dy="1em" x="1">11628×4</tspan></text></g><g id="nodes" class="nodes"><g id="input-name-input.1" class="node graph-input" style="" transform="translate(0,31)"><g class="node-item graph-item-input" transform="translate(0,0)"><path d="M5,0h37.625a5,5 0 0 1 5,5v13a5,5 0 0 1 -5,5h-37.625a5,5 0 0 1 -5,-5v-13a5,5 0 0 1 5,-5z" style="stroke: rgb(0, 0, 0); fill: rgb(238, 238, 238); stroke-width: 0;"/><text x="6" y="16" style="font-family: -apple-system, BlinkMacSystemFont, &quot;Segoe WPC&quot;, &quot;Segoe UI&quot;, Ubuntu, &quot;Droid Sans&quot;, sans-serif, &quot;PingFang SC&quot;; font-size: 11px; text-rendering: geometricprecision; user-select: none;">input.1</text><title>float32[11628,81]</title></g><path class="node node-border" d="M5,0h37.625a5,5 0 0 1 5,5v13a5,5 0 0 1 -5,5h-37.625a5,5 0 0 1 -5,-5v-13a5,5 0 0 1 5,-5z" style="stroke: rgb(51, 51, 51); fill: none; stroke-width: 1px;"/></g><g id="node-name-BatchNormalization_0" class="node graph-node" style="" transform="translate(132.203125,0)"><g class="node-item node-item-type node-item-type-normalization" transform="translate(0,0)"><path d="M5,0h99.46875a5,5 0 0 1 5,5v18a0,0 0 0 1 0,0h-109.46875a0,0 0 0 1 0,0v-18a5,5 0 0 1 5,-5z" style="stroke: rgb(0, 0, 0); fill: rgb(51, 85, 68); stroke-width: 0;"/><text x="6" y="16" style="font-family: -apple-system, BlinkMacSystemFont, &quot;Segoe WPC&quot;, &quot;Segoe UI&quot;, Ubuntu, &quot;Droid Sans&quot;, sans-serif, &quot;PingFang SC&quot;; font-size: 11px; text-rendering: geometricprecision; user-select: none; fill: rgb(255, 255, 255);">BatchNormalization</text><title>BatchNormalization_0</title></g><g class="node-attribute-list" transform="translate(0,23)"><path d="M0,0h109.46875a0,0 0 0 1 0,0v57a5,5 0 0 1 -5,5h-99.46875a5,5 0 0 1 -5,-5v-57a0,0 0 0 1 0,0z" style="stroke: rgb(0, 0, 0); fill: rgb(255, 255, 255); stroke-width: 0;"/><g class="node-attribute"><text xml:space="preserve" x="6" y="14" style="font-family: -apple-system, BlinkMacSystemFont, &quot;Segoe WPC&quot;, &quot;Segoe UI&quot;, Ubuntu, &quot;Droid Sans&quot;, sans-serif, &quot;PingFang SC&quot;; font-size: 9px; font-weight: normal; text-rendering: geometricprecision; user-select: none;"><title>float32[81]</title><tspan style="font-weight: bold;">scale</tspan><tspan>〈81〉</tspan></text></g><g class="node-attribute"><text xml:space="preserve" x="6" y="28" style="font-family: -apple-system, BlinkMacSystemFont, &quot;Segoe WPC&quot;, &quot;Segoe UI&quot;, Ubuntu, &quot;Droid Sans&quot;, sans-serif, &quot;PingFang SC&quot;; font-size: 9px; font-weight: normal; text-rendering: geometricprecision; user-select: none;"><title>float32[81]</title><tspan style="font-weight: bold;">B</tspan><tspan>〈81〉</tspan></text></g><g class="node-attribute"><text xml:space="preserve" x="6" y="42" style="font-family: -apple-system, BlinkMacSystemFont, &quot;Segoe WPC&quot;, &quot;Segoe UI&quot;, Ubuntu, &quot;Droid Sans&quot;, sans-serif, &quot;PingFang SC&quot;; font-size: 9px; font-weight: normal; text-rendering: geometricprecision; user-select: none;"><title>float32[81]</title><tspan style="font-weight: bold;">mean</tspan><tspan>〈81〉</tspan></text></g><g class="node-attribute"><text xml:space="preserve" x="6" y="56" style="font-family: -apple-system, BlinkMacSystemFont, &quot;Segoe WPC&quot;, &quot;Segoe UI&quot;, Ubuntu, &quot;Droid Sans&quot;, sans-serif, &quot;PingFang SC&quot;; font-size: 9px; font-weight: normal; text-rendering: geometricprecision; user-select: none;"><title>float32[81]</title><tspan style="font-weight: bold;">var</tspan><tspan>〈81〉</tspan></text></g><line class="node" x1="0" x2="109.46875" y1="0" y2="0" style="stroke: rgb(51, 51, 51); fill: none; stroke-width: 1px;"/></g><path class="node node-border" d="M5,0h99.46875a5,5 0 0 1 5,5v75a5,5 0 0 1 -5,5h-99.46875a5,5 0 0 1 -5,-5v-75a5,5 0 0 1 5,-5z" style="stroke: rgb(51, 51, 51); fill: none; stroke-width: 1px;"/></g><g id="node-name-Gemm_1" class="node graph-node" style="" transform="translate(261.671875,14)"><g class="node-item node-item-type node-item-type-layer" transform="translate(0,0)"><path d="M5,0h65a5,5 0 0 1 5,5v18a0,0 0 0 1 0,0h-75a0,0 0 0 1 0,0v-18a5,5 0 0 1 5,-5z" style="stroke: rgb(0, 0, 0); fill: rgb(51, 85, 136); stroke-width: 0;"/><text x="6" y="16" style="font-family: -apple-system, BlinkMacSystemFont, &quot;Segoe WPC&quot;, &quot;Segoe UI&quot;, Ubuntu, &quot;Droid Sans&quot;, sans-serif, &quot;PingFang SC&quot;; font-size: 11px; text-rendering: geometricprecision; user-select: none; fill: rgb(255, 255, 255);">Gemm</text><title>Gemm_1</title></g><g class="node-attribute-list" transform="translate(0,23)"><path d="M0,0h75a0,0 0 0 1 0,0v29a5,5 0 0 1 -5,5h-65a5,5 0 0 1 -5,-5v-29a0,0 0 0 1 0,0z" style="stroke: rgb(0, 0, 0); fill: rgb(255, 255, 255); stroke-width: 0;"/><g class="node-attribute"><text xml:space="preserve" x="6" y="14" style="font-family: -apple-system, BlinkMacSystemFont, &quot;Segoe WPC&quot;, &quot;Segoe UI&quot;, Ubuntu, &quot;Droid Sans&quot;, sans-serif, &quot;PingFang SC&quot;; font-size: 9px; font-weight: normal; text-rendering: geometricprecision; user-select: none;"><title>float32[128,81]</title><tspan style="font-weight: bold;">B</tspan><tspan>〈128×81〉</tspan></text></g><g class="node-attribute"><text xml:space="preserve" x="6" y="28" style="font-family: -apple-system, BlinkMacSystemFont, &quot;Segoe WPC&quot;, &quot;Segoe UI&quot;, Ubuntu, &quot;Droid Sans&quot;, sans-serif, &quot;PingFang SC&quot;; font-size: 9px; font-weight: normal; text-rendering: geometricprecision; user-select: none;"><title>float32[128]</title><tspan style="font-weight: bold;">C</tspan><tspan>〈128〉</tspan></text></g><line class="node" x1="0" x2="75" y1="0" y2="0" style="stroke: rgb(51, 51, 51); fill: none; stroke-width: 1px;"/></g><path class="node node-border" d="M5,0h65a5,5 0 0 1 5,5v47a5,5 0 0 1 -5,5h-65a5,5 0 0 1 -5,-5v-47a5,5 0 0 1 5,-5z" style="stroke: rgb(51, 51, 51); fill: none; stroke-width: 1px;"/></g><g id="node-name-Relu_2" class="node graph-node" style="" transform="translate(356.671875,31)"><g class="node-item node-item-type node-item-type-activation" transform="translate(0,0)"><path d="M5,0h24.90625a5,5 0 0 1 5,5v13a5,5 0 0 1 -5,5h-24.90625a5,5 0 0 1 -5,-5v-13a5,5 0 0 1 5,-5z" style="stroke: rgb(0, 0, 0); fill: rgb(112, 41, 33); stroke-width: 0;"/><text x="6" y="16" style="font-family: -apple-system, BlinkMacSystemFont, &quot;Segoe WPC&quot;, &quot;Segoe UI&quot;, Ubuntu, &quot;Droid Sans&quot;, sans-serif, &quot;PingFang SC&quot;; font-size: 11px; text-rendering: geometricprecision; user-select: none; fill: rgb(255, 255, 255);">Relu</text><title>Relu_2</title></g><path class="node node-border" d="M5,0h24.90625a5,5 0 0 1 5,5v13a5,5 0 0 1 -5,5h-24.90625a5,5 0 0 1 -5,-5v-13a5,5 0 0 1 5,-5z" style="stroke: rgb(51, 51, 51); fill: none; stroke-width: 1px;"/></g><g id="node-name-Gemm_3" class="node graph-node" style="" transform="translate(411.578125,14)"><g class="node-item node-item-type node-item-type-layer" transform="translate(0,0)"><path d="M5,0h65a5,5 0 0 1 5,5v18a0,0 0 0 1 0,0h-75a0,0 0 0 1 0,0v-18a5,5 0 0 1 5,-5z" style="stroke: rgb(0, 0, 0); fill: rgb(51, 85, 136); stroke-width: 0;"/><text x="6" y="16" style="font-family: -apple-system, BlinkMacSystemFont, &quot;Segoe WPC&quot;, &quot;Segoe UI&quot;, Ubuntu, &quot;Droid Sans&quot;, sans-serif, &quot;PingFang SC&quot;; font-size: 11px; text-rendering: geometricprecision; user-select: none; fill: rgb(255, 255, 255);">Gemm</text><title>Gemm_3</title></g><g class="node-attribute-list" transform="translate(0,23)"><path d="M0,0h75a0,0 0 0 1 0,0v29a5,5 0 0 1 -5,5h-65a5,5 0 0 1 -5,-5v-29a0,0 0 0 1 0,0z" style="stroke: rgb(0, 0, 0); fill: rgb(255, 255, 255); stroke-width: 0;"/><g class="node-attribute"><text xml:space="preserve" x="6" y="14" style="font-family: -apple-system, BlinkMacSystemFont, &quot;Segoe WPC&quot;, &quot;Segoe UI&quot;, Ubuntu, &quot;Droid Sans&quot;, sans-serif, &quot;PingFang SC&quot;; font-size: 9px; font-weight: normal; text-rendering: geometricprecision; user-select: none;"><title>float32[64,128]</title><tspan style="font-weight: bold;">B</tspan><tspan>〈64×128〉</tspan></text></g><g class="node-attribute"><text xml:space="preserve" x="6" y="28" style="font-family: -apple-system, BlinkMacSystemFont, &quot;Segoe WPC&quot;, &quot;Segoe UI&quot;, Ubuntu, &quot;Droid Sans&quot;, sans-serif, &quot;PingFang SC&quot;; font-size: 9px; font-weight: normal; text-rendering: geometricprecision; user-select: none;"><title>float32[64]</title><tspan style="font-weight: bold;">C</tspan><tspan>〈64〉</tspan></text></g><line class="node" x1="0" x2="75" y1="0" y2="0" style="stroke: rgb(51, 51, 51); fill: none; stroke-width: 1px;"/></g><path class="node node-border" d="M5,0h65a5,5 0 0 1 5,5v47a5,5 0 0 1 -5,5h-65a5,5 0 0 1 -5,-5v-47a5,5 0 0 1 5,-5z" style="stroke: rgb(51, 51, 51); fill: none; stroke-width: 1px;"/></g><g id="node-name-Relu_4" class="node graph-node" style="" transform="translate(506.578125,31)"><g class="node-item node-item-type node-item-type-activation" transform="translate(0,0)"><path d="M5,0h24.90625a5,5 0 0 1 5,5v13a5,5 0 0 1 -5,5h-24.90625a5,5 0 0 1 -5,-5v-13a5,5 0 0 1 5,-5z" style="stroke: rgb(0, 0, 0); fill: rgb(112, 41, 33); stroke-width: 0;"/><text x="6" y="16" style="font-family: -apple-system, BlinkMacSystemFont, &quot;Segoe WPC&quot;, &quot;Segoe UI&quot;, Ubuntu, &quot;Droid Sans&quot;, sans-serif, &quot;PingFang SC&quot;; font-size: 11px; text-rendering: geometricprecision; user-select: none; fill: rgb(255, 255, 255);">Relu</text><title>Relu_4</title></g><path class="node node-border" d="M5,0h24.90625a5,5 0 0 1 5,5v13a5,5 0 0 1 -5,5h-24.90625a5,5 0 0 1 -5,-5v-13a5,5 0 0 1 5,-5z" style="stroke: rgb(51, 51, 51); fill: none; stroke-width: 1px;"/></g><g id="node-name-Gemm_5" class="node graph-node" style="" transform="translate(561.484375,14)"><g class="node-item node-item-type node-item-type-layer" transform="translate(0,0)"><path d="M5,0h65a5,5 0 0 1 5,5v18a0,0 0 0 1 0,0h-75a0,0 0 0 1 0,0v-18a5,5 0 0 1 5,-5z" style="stroke: rgb(0, 0, 0); fill: rgb(51, 85, 136); stroke-width: 0;"/><text x="6" y="16" style="font-family: -apple-system, BlinkMacSystemFont, &quot;Segoe WPC&quot;, &quot;Segoe UI&quot;, Ubuntu, &quot;Droid Sans&quot;, sans-serif, &quot;PingFang SC&quot;; font-size: 11px; text-rendering: geometricprecision; user-select: none; fill: rgb(255, 255, 255);">Gemm</text><title>Gemm_5</title></g><g class="node-attribute-list" transform="translate(0,23)"><path d="M0,0h75a0,0 0 0 1 0,0v29a5,5 0 0 1 -5,5h-65a5,5 0 0 1 -5,-5v-29a0,0 0 0 1 0,0z" style="stroke: rgb(0, 0, 0); fill: rgb(255, 255, 255); stroke-width: 0;"/><g class="node-attribute"><text xml:space="preserve" x="6" y="14" style="font-family: -apple-system, BlinkMacSystemFont, &quot;Segoe WPC&quot;, &quot;Segoe UI&quot;, Ubuntu, &quot;Droid Sans&quot;, sans-serif, &quot;PingFang SC&quot;; font-size: 9px; font-weight: normal; text-rendering: geometricprecision; user-select: none;"><title>float32[4,64]</title><tspan style="font-weight: bold;">B</tspan><tspan>〈4×64〉</tspan></text></g><g class="node-attribute"><text xml:space="preserve" x="6" y="28" style="font-family: -apple-system, BlinkMacSystemFont, &quot;Segoe WPC&quot;, &quot;Segoe UI&quot;, Ubuntu, &quot;Droid Sans&quot;, sans-serif, &quot;PingFang SC&quot;; font-size: 9px; font-weight: normal; text-rendering: geometricprecision; user-select: none;"><title>float32[4]</title><tspan style="font-weight: bold;">C</tspan><tspan>〈4〉</tspan></text></g><line class="node" x1="0" x2="75" y1="0" y2="0" style="stroke: rgb(51, 51, 51); fill: none; stroke-width: 1px;"/></g><path class="node node-border" d="M5,0h65a5,5 0 0 1 5,5v47a5,5 0 0 1 -5,5h-65a5,5 0 0 1 -5,-5v-47a5,5 0 0 1 5,-5z" style="stroke: rgb(51, 51, 51); fill: none; stroke-width: 1px;"/></g><g id="node-name-Softmax_6" class="node graph-node" style="" transform="translate(656.484375,31)"><g class="node-item node-item-type node-item-type-activation" transform="translate(0,0)"><path d="M5,0h44.53076171875a5,5 0 0 1 5,5v13a5,5 0 0 1 -5,5h-44.53076171875a5,5 0 0 1 -5,-5v-13a5,5 0 0 1 5,-5z" style="stroke: rgb(0, 0, 0); fill: rgb(112, 41, 33); stroke-width: 0;"/><text x="6" y="16" style="font-family: -apple-system, BlinkMacSystemFont, &quot;Segoe WPC&quot;, &quot;Segoe UI&quot;, Ubuntu, &quot;Droid Sans&quot;, sans-serif, &quot;PingFang SC&quot;; font-size: 11px; text-rendering: geometricprecision; user-select: none; fill: rgb(255, 255, 255);">Softmax</text><title>Softmax_6</title></g><path class="node node-border" d="M5,0h44.53076171875a5,5 0 0 1 5,5v13a5,5 0 0 1 -5,5h-44.53076171875a5,5 0 0 1 -5,-5v-13a5,5 0 0 1 5,-5z" style="stroke: rgb(51, 51, 51); fill: none; stroke-width: 1px;"/></g><g class="node" style="" transform="translate(770.80908203125,31)"><g class="node-item graph-item-output" transform="translate(0,0)"><path d="M5,0h15.9296875a5,5 0 0 1 5,5v13a5,5 0 0 1 -5,5h-15.9296875a5,5 0 0 1 -5,-5v-13a5,5 0 0 1 5,-5z" style="stroke: rgb(0, 0, 0); fill: rgb(238, 238, 238); stroke-width: 0;"/><text x="6" y="16" style="font-family: -apple-system, BlinkMacSystemFont, &quot;Segoe WPC&quot;, &quot;Segoe UI&quot;, Ubuntu, &quot;Droid Sans&quot;, sans-serif, &quot;PingFang SC&quot;; font-size: 11px; text-rendering: geometricprecision; user-select: none;">18</text><title>float32[11628,4]</title></g><path class="node node-border" d="M5,0h15.9296875a5,5 0 0 1 5,5v13a5,5 0 0 1 -5,5h-15.9296875a5,5 0 0 1 -5,-5v-13a5,5 0 0 1 5,-5z" style="stroke: rgb(51, 51, 51); fill: none; stroke-width: 1px;"/></g></g></g></svg>